<svg width="1728" height="444" viewBox="0 0 1728 444" fill="none" xmlns="http://www.w3.org/2000/svg">
<path opacity="0.5" d="M1505.78 400.888H1495.31L1493.51 406H1489.22L1498.19 380.944H1502.94L1511.9 406H1507.58L1505.78 400.888ZM1504.63 397.54L1500.56 385.912L1496.46 397.54H1504.63ZM1519.91 379.36V406H1515.8V379.36H1519.91ZM1529.4 379.36V406H1525.29V379.36H1529.4ZM1536.87 383.536C1536.13 383.536 1535.51 383.284 1535 382.78C1534.5 382.276 1534.25 381.652 1534.25 380.908C1534.25 380.164 1534.5 379.54 1535 379.036C1535.51 378.532 1536.13 378.28 1536.87 378.28C1537.59 378.28 1538.21 378.532 1538.71 379.036C1539.21 379.54 1539.47 380.164 1539.47 380.908C1539.47 381.652 1539.21 382.276 1538.71 382.78C1538.21 383.284 1537.59 383.536 1536.87 383.536ZM1538.89 386.164V406H1534.79V386.164H1538.89ZM1542.91 395.992C1542.91 394 1543.32 392.236 1544.13 390.7C1544.97 389.164 1546.1 387.976 1547.52 387.136C1548.96 386.272 1550.54 385.84 1552.27 385.84C1553.83 385.84 1555.19 386.152 1556.34 386.776C1557.51 387.376 1558.45 388.132 1559.15 389.044V386.164H1563.29V406H1559.15V403.048C1558.45 403.984 1557.5 404.764 1556.3 405.388C1555.1 406.012 1553.73 406.324 1552.2 406.324C1550.49 406.324 1548.93 405.892 1547.52 405.028C1546.1 404.14 1544.97 402.916 1544.13 401.356C1543.32 399.772 1542.91 397.984 1542.91 395.992ZM1559.15 396.064C1559.15 394.696 1558.86 393.508 1558.28 392.5C1557.73 391.492 1557 390.724 1556.09 390.196C1555.17 389.668 1554.19 389.404 1553.13 389.404C1552.08 389.404 1551.09 389.668 1550.18 390.196C1549.27 390.7 1548.53 391.456 1547.95 392.464C1547.4 393.448 1547.12 394.624 1547.12 395.992C1547.12 397.36 1547.4 398.56 1547.95 399.592C1548.53 400.624 1549.27 401.416 1550.18 401.968C1551.12 402.496 1552.1 402.76 1553.13 402.76C1554.19 402.76 1555.17 402.496 1556.09 401.968C1557 401.44 1557.73 400.672 1558.28 399.664C1558.86 398.632 1559.15 397.432 1559.15 396.064ZM1578.68 385.84C1580.24 385.84 1581.64 386.164 1582.86 386.812C1584.11 387.46 1585.08 388.42 1585.78 389.692C1586.47 390.964 1586.82 392.5 1586.82 394.3V406H1582.75V394.912C1582.75 393.136 1582.31 391.78 1581.42 390.844C1580.53 389.884 1579.32 389.404 1577.78 389.404C1576.25 389.404 1575.02 389.884 1574.11 390.844C1573.22 391.78 1572.78 393.136 1572.78 394.912V406H1568.68V386.164H1572.78V388.432C1573.45 387.616 1574.3 386.98 1575.34 386.524C1576.39 386.068 1577.51 385.84 1578.68 385.84ZM1590.69 396.064C1590.69 394.024 1591.1 392.236 1591.91 390.7C1592.75 389.14 1593.9 387.94 1595.37 387.1C1596.83 386.26 1598.51 385.84 1600.41 385.84C1602.81 385.84 1604.79 386.416 1606.35 387.568C1607.93 388.696 1609 390.316 1609.55 392.428H1605.12C1604.76 391.444 1604.19 390.676 1603.4 390.124C1602.6 389.572 1601.61 389.296 1600.41 389.296C1598.73 389.296 1597.38 389.896 1596.38 391.096C1595.39 392.272 1594.9 393.928 1594.9 396.064C1594.9 398.2 1595.39 399.868 1596.38 401.068C1597.38 402.268 1598.73 402.868 1600.41 402.868C1602.78 402.868 1604.36 401.824 1605.12 399.736H1609.55C1608.98 401.752 1607.9 403.36 1606.31 404.56C1604.73 405.736 1602.76 406.324 1600.41 406.324C1598.51 406.324 1596.83 405.904 1595.37 405.064C1593.9 404.2 1592.75 403 1591.91 401.464C1591.1 399.904 1590.69 398.104 1590.69 396.064ZM1631.82 395.596C1631.82 396.34 1631.77 397.012 1631.68 397.612H1616.52C1616.64 399.196 1617.23 400.468 1618.29 401.428C1619.34 402.388 1620.64 402.868 1622.17 402.868C1624.38 402.868 1625.94 401.944 1626.85 400.096H1631.28C1630.68 401.92 1629.59 403.42 1628.01 404.596C1626.45 405.748 1624.5 406.324 1622.17 406.324C1620.28 406.324 1618.57 405.904 1617.06 405.064C1615.57 404.2 1614.4 403 1613.53 401.464C1612.69 399.904 1612.27 398.104 1612.27 396.064C1612.27 394.024 1612.68 392.236 1613.5 390.7C1614.34 389.14 1615.5 387.94 1616.99 387.1C1618.5 386.26 1620.23 385.84 1622.17 385.84C1624.05 385.84 1625.71 386.248 1627.18 387.064C1628.64 387.88 1629.78 389.032 1630.6 390.52C1631.41 391.984 1631.82 393.676 1631.82 395.596ZM1627.54 394.3C1627.51 392.788 1626.97 391.576 1625.92 390.664C1624.86 389.752 1623.55 389.296 1621.99 389.296C1620.58 389.296 1619.37 389.752 1618.36 390.664C1617.35 391.552 1616.75 392.764 1616.56 394.3H1627.54ZM1660.3 400.888H1649.82L1648.02 406H1643.74L1652.7 380.944H1657.45L1666.42 406H1662.1L1660.3 400.888ZM1659.14 397.54L1655.08 385.912L1650.97 397.54H1659.14ZM1672.4 383.536C1671.66 383.536 1671.03 383.284 1670.53 382.78C1670.03 382.276 1669.77 381.652 1669.77 380.908C1669.77 380.164 1670.03 379.54 1670.53 379.036C1671.03 378.532 1671.66 378.28 1672.4 378.28C1673.12 378.28 1673.73 378.532 1674.24 379.036C1674.74 379.54 1674.99 380.164 1674.99 380.908C1674.99 381.652 1674.74 382.276 1674.24 382.78C1673.73 383.284 1673.12 383.536 1672.4 383.536ZM1674.42 386.164V406H1670.31V386.164H1674.42ZM1683.91 389.044C1684.51 388.036 1685.3 387.256 1686.29 386.704C1687.29 386.128 1688.48 385.84 1689.85 385.84V390.088H1688.81C1687.2 390.088 1685.97 390.496 1685.13 391.312C1684.32 392.128 1683.91 393.544 1683.91 395.56V406H1679.81V386.164H1683.91V389.044Z" fill="white" fill-opacity="0.2"/>
<path opacity="0.5" d="M778.55 399.02H769.01L767.18 404H764.96L772.61 383.3H774.98L782.6 404H780.38L778.55 399.02ZM777.92 397.28L773.78 385.94L769.64 397.28H777.92ZM787.02 384.53C786.6 384.53 786.24 384.38 785.94 384.08C785.64 383.78 785.49 383.41 785.49 382.97C785.49 382.53 785.64 382.17 785.94 381.89C786.24 381.59 786.6 381.44 787.02 381.44C787.44 381.44 787.8 381.59 788.1 381.89C788.4 382.17 788.55 382.53 788.55 382.97C788.55 383.41 788.4 383.78 788.1 384.08C787.8 384.38 787.44 384.53 787.02 384.53ZM788.07 387.62V404H785.97V387.62H788.07ZM794.926 390.53C795.386 389.51 796.086 388.72 797.026 388.16C797.986 387.6 799.156 387.32 800.536 387.32V389.51H799.966C798.446 389.51 797.226 389.92 796.306 390.74C795.386 391.56 794.926 392.93 794.926 394.85V404H792.826V387.62H794.926V390.53ZM814.027 383.03V404H811.927V383.03H814.027ZM826.463 387.32C828.423 387.32 830.023 387.93 831.263 389.15C832.503 390.35 833.123 392.1 833.123 394.4V404H831.053V394.64C831.053 392.86 830.603 391.5 829.703 390.56C828.823 389.62 827.613 389.15 826.073 389.15C824.493 389.15 823.233 389.65 822.293 390.65C821.353 391.65 820.883 393.12 820.883 395.06V404H818.783V387.62H820.883V390.41C821.403 389.41 822.153 388.65 823.133 388.13C824.113 387.59 825.223 387.32 826.463 387.32ZM836.807 395.78C836.807 394.1 837.147 392.63 837.827 391.37C838.507 390.09 839.437 389.11 840.617 388.43C841.817 387.73 843.167 387.38 844.667 387.38C846.107 387.38 847.407 387.73 848.567 388.43C849.727 389.13 850.577 390.04 851.117 391.16V381.8H853.217V404H851.117V400.34C850.617 401.48 849.797 402.42 848.657 403.16C847.517 403.88 846.177 404.24 844.637 404.24C843.137 404.24 841.787 403.89 840.587 403.19C839.407 402.49 838.477 401.5 837.797 400.22C837.137 398.94 836.807 397.46 836.807 395.78ZM851.117 395.81C851.117 394.49 850.847 393.33 850.307 392.33C849.767 391.33 849.027 390.56 848.087 390.02C847.167 389.48 846.147 389.21 845.027 389.21C843.867 389.21 842.827 389.47 841.907 389.99C840.987 390.51 840.257 391.27 839.717 392.27C839.197 393.25 838.937 394.42 838.937 395.78C838.937 397.12 839.197 398.3 839.717 399.32C840.257 400.32 840.987 401.09 841.907 401.63C842.827 402.15 843.867 402.41 845.027 402.41C846.147 402.41 847.167 402.14 848.087 401.6C849.027 401.06 849.767 400.29 850.307 399.29C850.847 398.29 851.117 397.13 851.117 395.81ZM859.061 384.53C858.641 384.53 858.281 384.38 857.981 384.08C857.681 383.78 857.531 383.41 857.531 382.97C857.531 382.53 857.681 382.17 857.981 381.89C858.281 381.59 858.641 381.44 859.061 381.44C859.481 381.44 859.841 381.59 860.141 381.89C860.441 382.17 860.591 382.53 860.591 382.97C860.591 383.41 860.441 383.78 860.141 384.08C859.841 384.38 859.481 384.53 859.061 384.53ZM860.111 387.62V404H858.011V387.62H860.111ZM863.907 395.78C863.907 394.1 864.237 392.63 864.897 391.37C865.577 390.09 866.507 389.11 867.687 388.43C868.887 387.73 870.237 387.38 871.737 387.38C873.297 387.38 874.637 387.74 875.757 388.46C876.897 389.18 877.717 390.1 878.217 391.22V387.62H880.317V404H878.217V400.37C877.697 401.49 876.867 402.42 875.727 403.16C874.607 403.88 873.267 404.24 871.707 404.24C870.227 404.24 868.887 403.89 867.687 403.19C866.507 402.49 865.577 401.5 864.897 400.22C864.237 398.94 863.907 397.46 863.907 395.78ZM878.217 395.81C878.217 394.49 877.947 393.33 877.407 392.33C876.867 391.33 876.127 390.56 875.187 390.02C874.267 389.48 873.247 389.21 872.127 389.21C870.967 389.21 869.927 389.47 869.007 389.99C868.087 390.51 867.357 391.27 866.817 392.27C866.297 393.25 866.037 394.42 866.037 395.78C866.037 397.12 866.297 398.3 866.817 399.32C867.357 400.32 868.087 401.09 869.007 401.63C869.927 402.15 870.967 402.41 872.127 402.41C873.247 402.41 874.267 402.14 875.187 401.6C876.127 401.06 876.867 400.29 877.407 399.29C877.947 398.29 878.217 397.13 878.217 395.81ZM892.383 393.5C892.383 391.44 892.833 389.6 893.733 387.98C894.633 386.34 895.863 385.07 897.423 384.17C898.983 383.25 900.723 382.79 902.643 382.79C904.983 382.79 906.983 383.35 908.643 384.47C910.323 385.57 911.543 387.13 912.303 389.15H909.843C909.243 387.73 908.323 386.62 907.083 385.82C905.863 385.02 904.383 384.62 902.643 384.62C901.103 384.62 899.713 384.98 898.473 385.7C897.253 386.42 896.293 387.46 895.593 388.82C894.893 390.16 894.543 391.72 894.543 393.5C894.543 395.28 894.893 396.84 895.593 398.18C896.293 399.52 897.253 400.55 898.473 401.27C899.713 401.99 901.103 402.35 902.643 402.35C904.383 402.35 905.863 401.96 907.083 401.18C908.323 400.38 909.243 399.28 909.843 397.88H912.303C911.543 399.88 910.323 401.43 908.643 402.53C906.963 403.63 904.963 404.18 902.643 404.18C900.723 404.18 898.983 403.73 897.423 402.83C895.863 401.91 894.633 400.64 893.733 399.02C892.833 397.4 892.383 395.56 892.383 393.5ZM924.288 387.32C925.528 387.32 926.638 387.58 927.618 388.1C928.618 388.62 929.398 389.42 929.958 390.5C930.538 391.56 930.828 392.86 930.828 394.4V404H928.758V394.64C928.758 392.86 928.308 391.5 927.408 390.56C926.528 389.62 925.318 389.15 923.778 389.15C922.198 389.15 920.938 389.65 919.998 390.65C919.058 391.65 918.588 393.12 918.588 395.06V404H916.488V381.8H918.588V390.41C919.108 389.43 919.868 388.67 920.868 388.13C921.888 387.59 923.028 387.32 924.288 387.32ZM934.512 395.78C934.512 394.1 934.842 392.63 935.502 391.37C936.182 390.09 937.112 389.11 938.292 388.43C939.492 387.73 940.842 387.38 942.342 387.38C943.902 387.38 945.242 387.74 946.362 388.46C947.502 389.18 948.322 390.1 948.822 391.22V387.62H950.922V404H948.822V400.37C948.302 401.49 947.472 402.42 946.332 403.16C945.212 403.88 943.872 404.24 942.312 404.24C940.832 404.24 939.492 403.89 938.292 403.19C937.112 402.49 936.182 401.5 935.502 400.22C934.842 398.94 934.512 397.46 934.512 395.78ZM948.822 395.81C948.822 394.49 948.552 393.33 948.012 392.33C947.472 391.33 946.732 390.56 945.792 390.02C944.872 389.48 943.852 389.21 942.732 389.21C941.572 389.21 940.532 389.47 939.612 389.99C938.692 390.51 937.962 391.27 937.422 392.27C936.902 393.25 936.642 394.42 936.642 395.78C936.642 397.12 936.902 398.3 937.422 399.32C937.962 400.32 938.692 401.09 939.612 401.63C940.532 402.15 941.572 402.41 942.732 402.41C943.852 402.41 944.872 402.14 945.792 401.6C946.732 401.06 947.472 400.29 948.012 399.29C948.552 398.29 948.822 397.13 948.822 395.81ZM957.816 390.53C958.276 389.51 958.976 388.72 959.916 388.16C960.876 387.6 962.046 387.32 963.426 387.32V389.51H962.856C961.336 389.51 960.116 389.92 959.196 390.74C958.276 391.56 957.816 392.93 957.816 394.85V404H955.716V387.62H957.816V390.53ZM969.316 389.39V399.56C969.316 400.56 969.506 401.25 969.886 401.63C970.266 402.01 970.936 402.2 971.896 402.2H973.816V404H971.566C970.086 404 968.986 403.66 968.266 402.98C967.546 402.28 967.186 401.14 967.186 399.56V389.39H964.906V387.62H967.186V383.51H969.316V387.62H973.816V389.39H969.316ZM992.099 394.97C992.099 395.69 992.079 396.24 992.039 396.62H978.449C978.509 397.86 978.809 398.92 979.349 399.8C979.889 400.68 980.599 401.35 981.479 401.81C982.359 402.25 983.319 402.47 984.359 402.47C985.719 402.47 986.859 402.14 987.779 401.48C988.719 400.82 989.339 399.93 989.639 398.81H991.859C991.459 400.41 990.599 401.72 989.279 402.74C987.979 403.74 986.339 404.24 984.359 404.24C982.819 404.24 981.439 403.9 980.219 403.22C978.999 402.52 978.039 401.54 977.339 400.28C976.659 399 976.319 397.51 976.319 395.81C976.319 394.11 976.659 392.62 977.339 391.34C978.019 390.06 978.969 389.08 980.189 388.4C981.409 387.72 982.799 387.38 984.359 387.38C985.919 387.38 987.279 387.72 988.439 388.4C989.619 389.08 990.519 390 991.139 391.16C991.779 392.3 992.099 393.57 992.099 394.97ZM989.969 394.91C989.989 393.69 989.739 392.65 989.219 391.79C988.719 390.93 988.029 390.28 987.149 389.84C986.269 389.4 985.309 389.18 984.269 389.18C982.709 389.18 981.379 389.68 980.279 390.68C979.179 391.68 978.569 393.09 978.449 394.91H989.969ZM998.041 390.53C998.501 389.51 999.201 388.72 1000.14 388.16C1001.1 387.6 1002.27 387.32 1003.65 387.32V389.51H1003.08C1001.56 389.51 1000.34 389.92 999.421 390.74C998.501 391.56 998.041 392.93 998.041 394.85V404H995.941V387.62H998.041V390.53ZM1012.45 404.24C1010.57 404.24 1009.03 403.81 1007.83 402.95C1006.65 402.07 1005.99 400.88 1005.85 399.38H1008.01C1008.11 400.3 1008.54 401.05 1009.3 401.63C1010.08 402.19 1011.12 402.47 1012.42 402.47C1013.56 402.47 1014.45 402.2 1015.09 401.66C1015.75 401.12 1016.08 400.45 1016.08 399.65C1016.08 399.09 1015.9 398.63 1015.54 398.27C1015.18 397.91 1014.72 397.63 1014.16 397.43C1013.62 397.21 1012.88 396.98 1011.94 396.74C1010.72 396.42 1009.73 396.1 1008.97 395.78C1008.21 395.46 1007.56 394.99 1007.02 394.37C1006.5 393.73 1006.24 392.88 1006.24 391.82C1006.24 391.02 1006.48 390.28 1006.96 389.6C1007.44 388.92 1008.12 388.38 1009 387.98C1009.88 387.58 1010.88 387.38 1012 387.38C1013.76 387.38 1015.18 387.83 1016.26 388.73C1017.34 389.61 1017.92 390.83 1018 392.39H1015.9C1015.84 391.43 1015.46 390.66 1014.76 390.08C1014.08 389.48 1013.14 389.18 1011.94 389.18C1010.88 389.18 1010.02 389.43 1009.36 389.93C1008.7 390.43 1008.37 391.05 1008.37 391.79C1008.37 392.43 1008.56 392.96 1008.94 393.38C1009.34 393.78 1009.83 394.1 1010.41 394.34C1010.99 394.56 1011.77 394.81 1012.75 395.09C1013.93 395.41 1014.87 395.72 1015.57 396.02C1016.27 396.32 1016.87 396.76 1017.37 397.34C1017.87 397.92 1018.13 398.69 1018.15 399.65C1018.15 400.53 1017.91 401.32 1017.43 402.02C1016.95 402.7 1016.28 403.24 1015.42 403.64C1014.56 404.04 1013.57 404.24 1012.45 404.24ZM1032.44 402.29H1039.97V404H1030.34V383.03H1032.44V402.29ZM1045.69 389.39V399.56C1045.69 400.56 1045.88 401.25 1046.26 401.63C1046.64 402.01 1047.31 402.2 1048.27 402.2H1050.19V404H1047.94C1046.46 404 1045.36 403.66 1044.64 402.98C1043.92 402.28 1043.56 401.14 1043.56 399.56V389.39H1041.28V387.62H1043.56V383.51H1045.69V387.62H1050.19V389.39H1045.69ZM1052.7 395.78C1052.7 394.1 1053.04 392.63 1053.72 391.37C1054.4 390.09 1055.33 389.11 1056.51 388.43C1057.71 387.73 1059.06 387.38 1060.56 387.38C1062 387.38 1063.3 387.73 1064.46 388.43C1065.62 389.13 1066.47 390.04 1067.01 391.16V381.8H1069.11V404H1067.01V400.34C1066.51 401.48 1065.69 402.42 1064.55 403.16C1063.41 403.88 1062.07 404.24 1060.53 404.24C1059.03 404.24 1057.68 403.89 1056.48 403.19C1055.3 402.49 1054.37 401.5 1053.69 400.22C1053.03 398.94 1052.7 397.46 1052.7 395.78ZM1067.01 395.81C1067.01 394.49 1066.74 393.33 1066.2 392.33C1065.66 391.33 1064.92 390.56 1063.98 390.02C1063.06 389.48 1062.04 389.21 1060.92 389.21C1059.76 389.21 1058.72 389.47 1057.8 389.99C1056.88 390.51 1056.15 391.27 1055.61 392.27C1055.09 393.25 1054.83 394.42 1054.83 395.78C1054.83 397.12 1055.09 398.3 1055.61 399.32C1056.15 400.32 1056.88 401.09 1057.8 401.63C1058.72 402.15 1059.76 402.41 1060.92 402.41C1062.04 402.41 1063.06 402.14 1063.98 401.6C1064.92 401.06 1065.66 400.29 1066.2 399.29C1066.74 398.29 1067.01 397.13 1067.01 395.81Z" fill="white" fill-opacity="0.17"/>
<rect y="23" width="1726" height="421" fill="url(#paint0_linear_162_148)"/>
<path d="M20.5181 283.435L-42 203.055C-34.0612 199.085 -17.5882 190.551 -15.2065 188.17C-12.8249 185.788 -8.26005 187.177 -6.27535 188.17L136.623 247.711L199.141 220.917L124.715 179.238L160.44 167.33L327.155 179.238L446.237 143.514L541.503 113.743C559.365 110.776 585.693 112.174 595.09 113.743C612.952 116.727 617.914 119.703 621.883 131.612C625.852 143.52 615.929 160.186 598.067 167.33C586.158 172.093 555.396 181.223 541.503 185.192L404.558 226.871L380.742 247.711C399.795 254.856 400.589 278.474 398.604 289.389C379.749 296.336 339.658 310.229 330.132 310.229H315.247L196.164 423.357L154.486 432.288L228.912 283.435L115.784 316.183H83.0363C58.2275 335.038 6.22828 373.342 -3.29829 375.724C-12.8249 378.106 -13.2218 376.716 -12.2295 375.724L29.4493 310.229C26.4723 310.229 19.3273 309.633 14.564 307.252C9.80075 304.87 8.60992 300.305 8.60992 298.321L20.5181 283.435Z" fill="#D4619E" fill-opacity="0.07"/>
<path opacity="0.5" d="M1540.13 409.851H1532.18L1530.65 414.001H1528.8L1535.18 396.751H1537.15L1543.5 414.001H1541.65L1540.13 409.851ZM1539.6 408.401L1536.15 398.951L1532.7 408.401H1539.6ZM1547.18 397.776C1546.83 397.776 1546.53 397.651 1546.28 397.401C1546.03 397.151 1545.91 396.843 1545.91 396.476C1545.91 396.11 1546.03 395.81 1546.28 395.576C1546.53 395.326 1546.83 395.201 1547.18 395.201C1547.53 395.201 1547.83 395.326 1548.08 395.576C1548.33 395.81 1548.46 396.11 1548.46 396.476C1548.46 396.843 1548.33 397.151 1548.08 397.401C1547.83 397.651 1547.53 397.776 1547.18 397.776ZM1548.06 400.351V414.001H1546.31V400.351H1548.06ZM1553.77 402.776C1554.15 401.926 1554.74 401.268 1555.52 400.801C1556.32 400.335 1557.3 400.101 1558.45 400.101V401.926H1557.97C1556.7 401.926 1555.69 402.268 1554.92 402.951C1554.15 403.635 1553.77 404.776 1553.77 406.376V414.001H1552.02V400.351H1553.77V402.776ZM1573.11 396.526C1575.05 396.526 1576.71 396.876 1578.09 397.576C1579.47 398.276 1580.53 399.285 1581.26 400.601C1582 401.918 1582.36 403.485 1582.36 405.301C1582.36 407.101 1582 408.66 1581.26 409.976C1580.53 411.276 1579.47 412.276 1578.09 412.976C1576.71 413.66 1575.05 414.001 1573.11 414.001H1567.94V396.526H1573.11ZM1573.11 412.551C1575.55 412.551 1577.4 411.918 1578.66 410.651C1579.95 409.368 1580.59 407.585 1580.59 405.301C1580.59 403.001 1579.95 401.21 1578.66 399.926C1577.4 398.626 1575.55 397.976 1573.11 397.976H1569.69V412.551H1573.11ZM1597.94 406.476C1597.94 407.076 1597.92 407.535 1597.89 407.851H1586.57C1586.62 408.885 1586.87 409.768 1587.32 410.501C1587.77 411.235 1588.36 411.793 1589.09 412.176C1589.82 412.543 1590.62 412.726 1591.49 412.726C1592.62 412.726 1593.57 412.451 1594.34 411.901C1595.12 411.351 1595.64 410.61 1595.89 409.676H1597.74C1597.41 411.01 1596.69 412.101 1595.59 412.951C1594.51 413.785 1593.14 414.201 1591.49 414.201C1590.21 414.201 1589.06 413.918 1588.04 413.351C1587.02 412.768 1586.22 411.951 1585.64 410.901C1585.07 409.835 1584.79 408.593 1584.79 407.176C1584.79 405.76 1585.07 404.518 1585.64 403.451C1586.21 402.385 1587 401.568 1588.02 401.001C1589.03 400.435 1590.19 400.151 1591.49 400.151C1592.79 400.151 1593.92 400.435 1594.89 401.001C1595.87 401.568 1596.62 402.335 1597.14 403.301C1597.67 404.251 1597.94 405.31 1597.94 406.476ZM1596.17 406.426C1596.18 405.41 1595.97 404.543 1595.54 403.826C1595.12 403.11 1594.55 402.568 1593.82 402.201C1593.08 401.835 1592.28 401.651 1591.42 401.651C1590.12 401.651 1589.01 402.068 1588.09 402.901C1587.17 403.735 1586.67 404.91 1586.57 406.426H1596.17ZM1600.34 407.176C1600.34 405.76 1600.63 404.526 1601.19 403.476C1601.76 402.41 1602.54 401.593 1603.54 401.026C1604.54 400.443 1605.68 400.151 1606.97 400.151C1608.65 400.151 1610.03 400.568 1611.12 401.401C1612.22 402.235 1612.93 403.368 1613.24 404.801H1611.37C1611.13 403.818 1610.63 403.051 1609.84 402.501C1609.08 401.935 1608.12 401.651 1606.97 401.651C1606.05 401.651 1605.23 401.86 1604.49 402.276C1603.76 402.693 1603.18 403.318 1602.74 404.151C1602.33 404.968 1602.12 405.976 1602.12 407.176C1602.12 408.376 1602.33 409.393 1602.74 410.226C1603.18 411.06 1603.76 411.685 1604.49 412.101C1605.23 412.518 1606.05 412.726 1606.97 412.726C1608.12 412.726 1609.08 412.451 1609.84 411.901C1610.63 411.335 1611.13 410.551 1611.37 409.551H1613.24C1612.93 410.951 1612.22 412.076 1611.12 412.926C1610.02 413.776 1608.63 414.201 1606.97 414.201C1605.68 414.201 1604.54 413.918 1603.54 413.351C1602.54 412.768 1601.76 411.951 1601.19 410.901C1600.63 409.835 1600.34 408.593 1600.34 407.176ZM1615.67 407.176C1615.67 405.76 1615.96 404.526 1616.52 403.476C1617.09 402.41 1617.87 401.593 1618.87 401.026C1619.87 400.443 1621.02 400.151 1622.3 400.151C1623.98 400.151 1625.37 400.568 1626.45 401.401C1627.55 402.235 1628.26 403.368 1628.57 404.801H1626.7C1626.47 403.818 1625.96 403.051 1625.17 402.501C1624.41 401.935 1623.45 401.651 1622.3 401.651C1621.38 401.651 1620.56 401.86 1619.82 402.276C1619.09 402.693 1618.51 403.318 1618.07 404.151C1617.66 404.968 1617.45 405.976 1617.45 407.176C1617.45 408.376 1617.66 409.393 1618.07 410.226C1618.51 411.06 1619.09 411.685 1619.82 412.101C1620.56 412.518 1621.38 412.726 1622.3 412.726C1623.45 412.726 1624.41 412.451 1625.17 411.901C1625.96 411.335 1626.47 410.551 1626.7 409.551H1628.57C1628.26 410.951 1627.55 412.076 1626.45 412.926C1625.35 413.776 1623.97 414.201 1622.3 414.201C1621.02 414.201 1619.87 413.918 1618.87 413.351C1617.87 412.768 1617.09 411.951 1616.52 410.901C1615.96 409.835 1615.67 408.593 1615.67 407.176ZM1631.01 407.151C1631.01 405.751 1631.28 404.526 1631.83 403.476C1632.4 402.41 1633.17 401.593 1634.16 401.026C1635.16 400.443 1636.28 400.151 1637.53 400.151C1638.83 400.151 1639.95 400.451 1640.88 401.051C1641.83 401.651 1642.51 402.418 1642.93 403.351V400.351H1644.68V414.001H1642.93V410.976C1642.5 411.91 1641.81 412.685 1640.86 413.301C1639.92 413.901 1638.81 414.201 1637.51 414.201C1636.27 414.201 1635.16 413.91 1634.16 413.326C1633.17 412.743 1632.4 411.918 1631.83 410.851C1631.28 409.785 1631.01 408.551 1631.01 407.151ZM1642.93 407.176C1642.93 406.076 1642.71 405.11 1642.26 404.276C1641.81 403.443 1641.19 402.801 1640.41 402.351C1639.64 401.901 1638.79 401.676 1637.86 401.676C1636.89 401.676 1636.02 401.893 1635.26 402.326C1634.49 402.76 1633.88 403.393 1633.43 404.226C1633 405.043 1632.78 406.018 1632.78 407.151C1632.78 408.268 1633 409.251 1633.43 410.101C1633.88 410.935 1634.49 411.576 1635.26 412.026C1636.02 412.46 1636.89 412.676 1637.86 412.676C1638.79 412.676 1639.64 412.451 1640.41 412.001C1641.19 411.551 1641.81 410.91 1642.26 410.076C1642.71 409.243 1642.93 408.276 1642.93 407.176ZM1655.08 400.101C1656.71 400.101 1658.04 400.61 1659.08 401.626C1660.11 402.626 1660.63 404.085 1660.63 406.001V414.001H1658.9V406.201C1658.9 404.718 1658.53 403.585 1657.78 402.801C1657.04 402.018 1656.04 401.626 1654.75 401.626C1653.44 401.626 1652.39 402.043 1651.6 402.876C1650.82 403.71 1650.43 404.935 1650.43 406.551V414.001H1648.68V400.351H1650.43V402.676C1650.86 401.843 1651.49 401.21 1652.3 400.776C1653.12 400.326 1654.04 400.101 1655.08 400.101Z" fill="white"/>
<path opacity="0.5" d="M1582.56 166.063V176.363C1582.56 177.51 1582.21 178.43 1581.5 179.123C1580.79 179.803 1579.86 180.143 1578.7 180.143C1577.53 180.143 1576.59 179.797 1575.88 179.103C1575.17 178.397 1574.82 177.437 1574.82 176.223H1576.64C1576.65 176.903 1576.83 177.457 1577.16 177.883C1577.51 178.31 1578.02 178.523 1578.7 178.523C1579.38 178.523 1579.89 178.323 1580.22 177.923C1580.55 177.51 1580.72 176.99 1580.72 176.363V166.063H1582.56ZM1596.15 174.103C1596.15 174.45 1596.13 174.817 1596.09 175.203H1587.33C1587.39 176.283 1587.76 177.13 1588.43 177.743C1589.11 178.343 1589.93 178.643 1590.89 178.643C1591.67 178.643 1592.33 178.463 1592.85 178.103C1593.38 177.73 1593.75 177.237 1593.97 176.623H1595.93C1595.63 177.677 1595.05 178.537 1594.17 179.203C1593.29 179.857 1592.19 180.183 1590.89 180.183C1589.85 180.183 1588.91 179.95 1588.09 179.483C1587.27 179.017 1586.63 178.357 1586.17 177.503C1585.7 176.637 1585.47 175.637 1585.47 174.503C1585.47 173.37 1585.69 172.377 1586.15 171.523C1586.6 170.67 1587.23 170.017 1588.05 169.563C1588.87 169.097 1589.82 168.863 1590.89 168.863C1591.93 168.863 1592.85 169.09 1593.65 169.543C1594.45 169.997 1595.06 170.623 1595.49 171.423C1595.93 172.21 1596.15 173.103 1596.15 174.103ZM1594.27 173.723C1594.27 173.03 1594.11 172.437 1593.81 171.943C1593.5 171.437 1593.08 171.057 1592.55 170.803C1592.03 170.537 1591.45 170.403 1590.81 170.403C1589.89 170.403 1589.1 170.697 1588.45 171.283C1587.81 171.87 1587.44 172.683 1587.35 173.723H1594.27ZM1600.77 170.543V177.003C1600.77 177.537 1600.88 177.917 1601.11 178.143C1601.33 178.357 1601.73 178.463 1602.29 178.463H1603.63V180.003H1601.99C1600.97 180.003 1600.21 179.77 1599.71 179.303C1599.2 178.837 1598.95 178.07 1598.95 177.003V170.543H1597.53V169.043H1598.95V166.283H1600.77V169.043H1603.63V170.543H1600.77ZM1619.41 176.903H1613.33L1612.21 180.003H1610.28L1615.33 166.143H1617.43L1622.45 180.003H1620.53L1619.41 176.903ZM1618.89 175.423L1616.37 168.383L1613.85 175.423H1618.89ZM1625.58 167.263C1625.23 167.263 1624.94 167.143 1624.7 166.903C1624.46 166.663 1624.34 166.37 1624.34 166.023C1624.34 165.677 1624.46 165.383 1624.7 165.143C1624.94 164.903 1625.23 164.783 1625.58 164.783C1625.91 164.783 1626.19 164.903 1626.42 165.143C1626.66 165.383 1626.78 165.677 1626.78 166.023C1626.78 166.37 1626.66 166.663 1626.42 166.903C1626.19 167.143 1625.91 167.263 1625.58 167.263ZM1626.46 169.043V180.003H1624.64V169.043H1626.46ZM1631.38 170.823C1631.7 170.197 1632.16 169.71 1632.74 169.363C1633.34 169.017 1634.07 168.843 1634.92 168.843V170.723H1634.44C1632.4 170.723 1631.38 171.83 1631.38 174.043V180.003H1629.56V169.043H1631.38V170.823ZM1651.62 169.043L1648.2 180.003H1646.32L1643.68 171.303L1641.04 180.003H1639.16L1635.72 169.043H1637.58L1640.1 178.243L1642.82 169.043H1644.68L1647.34 178.263L1649.82 169.043H1651.62ZM1652.75 174.483C1652.75 173.363 1652.98 172.383 1653.43 171.543C1653.88 170.69 1654.5 170.03 1655.29 169.563C1656.09 169.097 1656.98 168.863 1657.95 168.863C1658.91 168.863 1659.74 169.07 1660.45 169.483C1661.16 169.897 1661.68 170.417 1662.03 171.043V169.043H1663.87V180.003H1662.03V177.963C1661.67 178.603 1661.13 179.137 1660.41 179.563C1659.7 179.977 1658.88 180.183 1657.93 180.183C1656.96 180.183 1656.08 179.943 1655.29 179.463C1654.5 178.983 1653.88 178.31 1653.43 177.443C1652.98 176.577 1652.75 175.59 1652.75 174.483ZM1662.03 174.503C1662.03 173.677 1661.86 172.957 1661.53 172.343C1661.2 171.73 1660.74 171.263 1660.17 170.943C1659.61 170.61 1658.99 170.443 1658.31 170.443C1657.63 170.443 1657.01 170.603 1656.45 170.923C1655.89 171.243 1655.44 171.71 1655.11 172.323C1654.78 172.937 1654.61 173.657 1654.61 174.483C1654.61 175.323 1654.78 176.057 1655.11 176.683C1655.44 177.297 1655.89 177.77 1656.45 178.103C1657.01 178.423 1657.63 178.583 1658.31 178.583C1658.99 178.583 1659.61 178.423 1660.17 178.103C1660.74 177.77 1661.2 177.297 1661.53 176.683C1661.86 176.057 1662.03 175.33 1662.03 174.503ZM1676.39 169.043L1669.79 185.163H1667.91L1670.07 179.883L1665.65 169.043H1667.67L1671.11 177.923L1674.51 169.043H1676.39ZM1682.1 180.183C1681.26 180.183 1680.5 180.043 1679.84 179.763C1679.17 179.47 1678.64 179.07 1678.26 178.563C1677.87 178.043 1677.66 177.45 1677.62 176.783H1679.5C1679.55 177.33 1679.8 177.777 1680.26 178.123C1680.72 178.47 1681.33 178.643 1682.08 178.643C1682.77 178.643 1683.32 178.49 1683.72 178.183C1684.12 177.877 1684.32 177.49 1684.32 177.023C1684.32 176.543 1684.1 176.19 1683.68 175.963C1683.25 175.723 1682.59 175.49 1681.7 175.263C1680.88 175.05 1680.22 174.837 1679.7 174.623C1679.19 174.397 1678.75 174.07 1678.38 173.643C1678.02 173.203 1677.84 172.63 1677.84 171.923C1677.84 171.363 1678 170.85 1678.34 170.383C1678.67 169.917 1679.14 169.55 1679.76 169.283C1680.37 169.003 1681.07 168.863 1681.86 168.863C1683.07 168.863 1684.05 169.17 1684.8 169.783C1685.54 170.397 1685.94 171.237 1686 172.303H1684.18C1684.14 171.73 1683.9 171.27 1683.48 170.923C1683.06 170.577 1682.5 170.403 1681.8 170.403C1681.14 170.403 1680.62 170.543 1680.24 170.823C1679.85 171.103 1679.66 171.47 1679.66 171.923C1679.66 172.283 1679.77 172.583 1680 172.823C1680.24 173.05 1680.53 173.237 1680.88 173.383C1681.24 173.517 1681.73 173.67 1682.36 173.843C1683.14 174.057 1683.78 174.27 1684.28 174.483C1684.77 174.683 1685.19 174.99 1685.54 175.403C1685.9 175.817 1686.08 176.357 1686.1 177.023C1686.1 177.623 1685.93 178.163 1685.6 178.643C1685.26 179.123 1684.79 179.503 1684.18 179.783C1683.58 180.05 1682.88 180.183 1682.1 180.183Z" fill="white"/>
<path opacity="0.5" d="M1516.78 134.891H1506.31L1504.51 140.003H1500.22L1509.19 114.947H1513.94L1522.9 140.003H1518.58L1516.78 134.891ZM1515.63 131.543L1511.56 119.915L1507.46 131.543H1515.63ZM1530.91 113.363V140.003H1526.8V113.363H1530.91ZM1540.4 113.363V140.003H1536.29V113.363H1540.4ZM1547.87 117.539C1547.13 117.539 1546.51 117.287 1546 116.783C1545.5 116.279 1545.25 115.655 1545.25 114.911C1545.25 114.167 1545.5 113.543 1546 113.039C1546.51 112.535 1547.13 112.283 1547.87 112.283C1548.59 112.283 1549.21 112.535 1549.71 113.039C1550.21 113.543 1550.47 114.167 1550.47 114.911C1550.47 115.655 1550.21 116.279 1549.71 116.783C1549.21 117.287 1548.59 117.539 1547.87 117.539ZM1549.89 120.167V140.003H1545.79V120.167H1549.89ZM1553.91 129.995C1553.91 128.003 1554.32 126.239 1555.13 124.703C1555.97 123.167 1557.1 121.979 1558.52 121.139C1559.96 120.275 1561.54 119.843 1563.27 119.843C1564.83 119.843 1566.19 120.155 1567.34 120.779C1568.51 121.379 1569.45 122.135 1570.15 123.047V120.167H1574.29V140.003H1570.15V137.051C1569.45 137.987 1568.5 138.767 1567.3 139.391C1566.1 140.015 1564.73 140.327 1563.2 140.327C1561.49 140.327 1559.93 139.895 1558.52 139.031C1557.1 138.143 1555.97 136.919 1555.13 135.359C1554.32 133.775 1553.91 131.987 1553.91 129.995ZM1570.15 130.067C1570.15 128.699 1569.86 127.511 1569.28 126.503C1568.73 125.495 1568 124.727 1567.09 124.199C1566.17 123.671 1565.19 123.407 1564.13 123.407C1563.08 123.407 1562.09 123.671 1561.18 124.199C1560.27 124.703 1559.53 125.459 1558.95 126.467C1558.4 127.451 1558.12 128.627 1558.12 129.995C1558.12 131.363 1558.4 132.563 1558.95 133.595C1559.53 134.627 1560.27 135.419 1561.18 135.971C1562.12 136.499 1563.1 136.763 1564.13 136.763C1565.19 136.763 1566.17 136.499 1567.09 135.971C1568 135.443 1568.73 134.675 1569.28 133.667C1569.86 132.635 1570.15 131.435 1570.15 130.067ZM1589.68 119.843C1591.24 119.843 1592.64 120.167 1593.86 120.815C1595.11 121.463 1596.08 122.423 1596.78 123.695C1597.47 124.967 1597.82 126.503 1597.82 128.303V140.003H1593.75V128.915C1593.75 127.139 1593.31 125.783 1592.42 124.847C1591.53 123.887 1590.32 123.407 1588.78 123.407C1587.25 123.407 1586.02 123.887 1585.11 124.847C1584.22 125.783 1583.78 127.139 1583.78 128.915V140.003H1579.68V120.167H1583.78V122.435C1584.45 121.619 1585.3 120.983 1586.34 120.527C1587.39 120.071 1588.51 119.843 1589.68 119.843ZM1601.69 130.067C1601.69 128.027 1602.1 126.239 1602.91 124.703C1603.75 123.143 1604.9 121.943 1606.37 121.103C1607.83 120.263 1609.51 119.843 1611.41 119.843C1613.81 119.843 1615.79 120.419 1617.35 121.571C1618.93 122.699 1620 124.319 1620.55 126.431H1616.12C1615.76 125.447 1615.19 124.679 1614.4 124.127C1613.6 123.575 1612.61 123.299 1611.41 123.299C1609.73 123.299 1608.38 123.899 1607.38 125.099C1606.39 126.275 1605.9 127.931 1605.9 130.067C1605.9 132.203 1606.39 133.871 1607.38 135.071C1608.38 136.271 1609.73 136.871 1611.41 136.871C1613.78 136.871 1615.36 135.827 1616.12 133.739H1620.55C1619.98 135.755 1618.9 137.363 1617.31 138.563C1615.73 139.739 1613.76 140.327 1611.41 140.327C1609.51 140.327 1607.83 139.907 1606.37 139.067C1604.9 138.203 1603.75 137.003 1602.91 135.467C1602.1 133.907 1601.69 132.107 1601.69 130.067ZM1642.82 129.599C1642.82 130.343 1642.77 131.015 1642.68 131.615H1627.52C1627.64 133.199 1628.23 134.471 1629.29 135.431C1630.34 136.391 1631.64 136.871 1633.17 136.871C1635.38 136.871 1636.94 135.947 1637.85 134.099H1642.28C1641.68 135.923 1640.59 137.423 1639.01 138.599C1637.45 139.751 1635.5 140.327 1633.17 140.327C1631.28 140.327 1629.57 139.907 1628.06 139.067C1626.57 138.203 1625.4 137.003 1624.53 135.467C1623.69 133.907 1623.27 132.107 1623.27 130.067C1623.27 128.027 1623.68 126.239 1624.5 124.703C1625.34 123.143 1626.5 121.943 1627.99 121.103C1629.5 120.263 1631.23 119.843 1633.17 119.843C1635.05 119.843 1636.71 120.251 1638.18 121.067C1639.64 121.883 1640.78 123.035 1641.6 124.523C1642.41 125.987 1642.82 127.679 1642.82 129.599ZM1638.54 128.303C1638.51 126.791 1637.97 125.579 1636.92 124.667C1635.86 123.755 1634.55 123.299 1632.99 123.299C1631.58 123.299 1630.37 123.755 1629.36 124.667C1628.35 125.555 1627.75 126.767 1627.56 128.303H1638.54ZM1671.3 134.891H1660.82L1659.02 140.003H1654.74L1663.7 114.947H1668.45L1677.42 140.003H1673.1L1671.3 134.891ZM1670.14 131.543L1666.08 119.915L1661.97 131.543H1670.14ZM1683.4 117.539C1682.66 117.539 1682.03 117.287 1681.53 116.783C1681.03 116.279 1680.77 115.655 1680.77 114.911C1680.77 114.167 1681.03 113.543 1681.53 113.039C1682.03 112.535 1682.66 112.283 1683.4 112.283C1684.12 112.283 1684.73 112.535 1685.24 113.039C1685.74 113.543 1685.99 114.167 1685.99 114.911C1685.99 115.655 1685.74 116.279 1685.24 116.783C1684.73 117.287 1684.12 117.539 1683.4 117.539ZM1685.42 120.167V140.003H1681.31V120.167H1685.42ZM1694.91 123.047C1695.51 122.039 1696.3 121.259 1697.29 120.707C1698.29 120.131 1699.48 119.843 1700.85 119.843V124.091H1699.81C1698.2 124.091 1696.97 124.499 1696.13 125.315C1695.32 126.131 1694.91 127.547 1694.91 129.563V140.003H1690.81V120.167H1694.91V123.047Z" fill="white"/>
<path opacity="0.5" d="M1278.13 130.853H1270.18L1268.65 135.003H1266.8L1273.18 117.753H1275.15L1281.5 135.003H1279.65L1278.13 130.853ZM1277.6 129.403L1274.15 119.953L1270.7 129.403H1277.6ZM1285.18 118.778C1284.83 118.778 1284.53 118.653 1284.28 118.403C1284.03 118.153 1283.91 117.845 1283.91 117.478C1283.91 117.112 1284.03 116.812 1284.28 116.578C1284.53 116.328 1284.83 116.203 1285.18 116.203C1285.53 116.203 1285.83 116.328 1286.08 116.578C1286.33 116.812 1286.46 117.112 1286.46 117.478C1286.46 117.845 1286.33 118.153 1286.08 118.403C1285.83 118.653 1285.53 118.778 1285.18 118.778ZM1286.06 121.353V135.003H1284.31V121.353H1286.06ZM1291.77 123.778C1292.15 122.928 1292.74 122.27 1293.52 121.803C1294.32 121.337 1295.3 121.103 1296.45 121.103V122.928H1295.97C1294.7 122.928 1293.69 123.27 1292.92 123.953C1292.15 124.637 1291.77 125.778 1291.77 127.378V135.003H1290.02V121.353H1291.77V123.778ZM1318.91 117.528V135.003H1317.16V126.828H1307.69V135.003H1305.94V117.528H1307.69V125.378H1317.16V117.528H1318.91ZM1335.26 127.478C1335.26 128.078 1335.24 128.537 1335.21 128.853H1323.88C1323.93 129.887 1324.18 130.77 1324.63 131.503C1325.08 132.237 1325.67 132.795 1326.41 133.178C1327.14 133.545 1327.94 133.728 1328.81 133.728C1329.94 133.728 1330.89 133.453 1331.66 132.903C1332.44 132.353 1332.96 131.612 1333.21 130.678H1335.06C1334.72 132.012 1334.01 133.103 1332.91 133.953C1331.82 134.787 1330.46 135.203 1328.81 135.203C1327.52 135.203 1326.37 134.92 1325.36 134.353C1324.34 133.77 1323.54 132.953 1322.96 131.903C1322.39 130.837 1322.11 129.595 1322.11 128.178C1322.11 126.762 1322.39 125.52 1322.96 124.453C1323.52 123.387 1324.32 122.57 1325.33 122.003C1326.35 121.437 1327.51 121.153 1328.81 121.153C1330.11 121.153 1331.24 121.437 1332.21 122.003C1333.19 122.57 1333.94 123.337 1334.46 124.303C1334.99 125.253 1335.26 126.312 1335.26 127.478ZM1333.48 127.428C1333.5 126.412 1333.29 125.545 1332.86 124.828C1332.44 124.112 1331.87 123.57 1331.13 123.203C1330.4 122.837 1329.6 122.653 1328.73 122.653C1327.43 122.653 1326.32 123.07 1325.41 123.903C1324.49 124.737 1323.98 125.912 1323.88 127.428H1333.48ZM1340.21 123.778C1340.59 122.928 1341.18 122.27 1341.96 121.803C1342.76 121.337 1343.73 121.103 1344.88 121.103V122.928H1344.41C1343.14 122.928 1342.13 123.27 1341.36 123.953C1340.59 124.637 1340.21 125.778 1340.21 127.378V135.003H1338.46V121.353H1340.21V123.778ZM1348.39 118.778C1348.04 118.778 1347.74 118.653 1347.49 118.403C1347.24 118.153 1347.12 117.845 1347.12 117.478C1347.12 117.112 1347.24 116.812 1347.49 116.578C1347.74 116.328 1348.04 116.203 1348.39 116.203C1348.74 116.203 1349.04 116.328 1349.29 116.578C1349.54 116.812 1349.67 117.112 1349.67 117.478C1349.67 117.845 1349.54 118.153 1349.29 118.403C1349.04 118.653 1348.74 118.778 1348.39 118.778ZM1349.27 121.353V135.003H1347.52V121.353H1349.27ZM1355.5 122.828V131.303C1355.5 132.137 1355.66 132.712 1355.98 133.028C1356.3 133.345 1356.85 133.503 1357.65 133.503H1359.25V135.003H1357.38C1356.15 135.003 1355.23 134.72 1354.63 134.153C1354.03 133.57 1353.73 132.62 1353.73 131.303V122.828H1351.83V121.353H1353.73V117.928H1355.5V121.353H1359.25V122.828H1355.5ZM1361.34 128.153C1361.34 126.753 1361.62 125.528 1362.17 124.478C1362.73 123.412 1363.51 122.595 1364.49 122.028C1365.49 121.445 1366.62 121.153 1367.87 121.153C1369.17 121.153 1370.28 121.453 1371.22 122.053C1372.17 122.653 1372.85 123.42 1373.27 124.353V121.353H1375.02V135.003H1373.27V131.978C1372.83 132.912 1372.14 133.687 1371.19 134.303C1370.26 134.903 1369.14 135.203 1367.84 135.203C1366.61 135.203 1365.49 134.912 1364.49 134.328C1363.51 133.745 1362.73 132.92 1362.17 131.853C1361.62 130.787 1361.34 129.553 1361.34 128.153ZM1373.27 128.178C1373.27 127.078 1373.04 126.112 1372.59 125.278C1372.14 124.445 1371.52 123.803 1370.74 123.353C1369.97 122.903 1369.12 122.678 1368.19 122.678C1367.22 122.678 1366.36 122.895 1365.59 123.328C1364.82 123.762 1364.22 124.395 1363.77 125.228C1363.33 126.045 1363.12 127.02 1363.12 128.153C1363.12 129.27 1363.33 130.253 1363.77 131.103C1364.22 131.937 1364.82 132.578 1365.59 133.028C1366.36 133.462 1367.22 133.678 1368.19 133.678C1369.12 133.678 1369.97 133.453 1370.74 133.003C1371.52 132.553 1372.14 131.912 1372.59 131.078C1373.04 130.245 1373.27 129.278 1373.27 128.178ZM1384.74 121.153C1386.02 121.153 1387.14 121.453 1388.09 122.053C1389.04 122.653 1389.72 123.412 1390.14 124.328V121.353H1391.89V135.353C1391.89 136.603 1391.61 137.712 1391.06 138.678C1390.53 139.645 1389.78 140.387 1388.81 140.903C1387.84 141.437 1386.74 141.703 1385.51 141.703C1383.76 141.703 1382.3 141.287 1381.14 140.453C1379.99 139.62 1379.27 138.487 1378.99 137.053H1380.71C1381.01 138.003 1381.58 138.762 1382.41 139.328C1383.26 139.895 1384.29 140.178 1385.51 140.178C1386.39 140.178 1387.19 139.987 1387.89 139.603C1388.59 139.237 1389.14 138.687 1389.54 137.953C1389.94 137.22 1390.14 136.353 1390.14 135.353V131.978C1389.7 132.912 1389.01 133.687 1388.06 134.303C1387.13 134.903 1386.02 135.203 1384.74 135.203C1383.49 135.203 1382.36 134.912 1381.36 134.328C1380.38 133.745 1379.6 132.92 1379.04 131.853C1378.49 130.787 1378.21 129.553 1378.21 128.153C1378.21 126.753 1378.49 125.528 1379.04 124.478C1379.6 123.412 1380.38 122.595 1381.36 122.028C1382.36 121.445 1383.49 121.153 1384.74 121.153ZM1390.14 128.178C1390.14 127.078 1389.91 126.112 1389.46 125.278C1389.01 124.445 1388.39 123.803 1387.61 123.353C1386.84 122.903 1385.99 122.678 1385.06 122.678C1384.09 122.678 1383.23 122.895 1382.46 123.328C1381.69 123.762 1381.09 124.395 1380.64 125.228C1380.2 126.045 1379.99 127.02 1379.99 128.153C1379.99 129.27 1380.2 130.253 1380.64 131.103C1381.09 131.937 1381.69 132.578 1382.46 133.028C1383.23 133.462 1384.09 133.678 1385.06 133.678C1385.99 133.678 1386.84 133.453 1387.61 133.003C1388.39 132.553 1389.01 131.912 1389.46 131.078C1389.91 130.245 1390.14 129.278 1390.14 128.178ZM1408.23 127.478C1408.23 128.078 1408.21 128.537 1408.18 128.853H1396.86C1396.91 129.887 1397.16 130.77 1397.61 131.503C1398.06 132.237 1398.65 132.795 1399.38 133.178C1400.11 133.545 1400.91 133.728 1401.78 133.728C1402.91 133.728 1403.86 133.453 1404.63 132.903C1405.41 132.353 1405.93 131.612 1406.18 130.678H1408.03C1407.7 132.012 1406.98 133.103 1405.88 133.953C1404.8 134.787 1403.43 135.203 1401.78 135.203C1400.5 135.203 1399.35 134.92 1398.33 134.353C1397.31 133.77 1396.51 132.953 1395.93 131.903C1395.36 130.837 1395.08 129.595 1395.08 128.178C1395.08 126.762 1395.36 125.52 1395.93 124.453C1396.5 123.387 1397.29 122.57 1398.31 122.003C1399.32 121.437 1400.48 121.153 1401.78 121.153C1403.08 121.153 1404.21 121.437 1405.18 122.003C1406.16 122.57 1406.91 123.337 1407.43 124.303C1407.96 125.253 1408.23 126.312 1408.23 127.478ZM1406.46 127.428C1406.47 126.412 1406.26 125.545 1405.83 124.828C1405.41 124.112 1404.84 123.57 1404.11 123.203C1403.37 122.837 1402.57 122.653 1401.71 122.653C1400.41 122.653 1399.3 123.07 1398.38 123.903C1397.46 124.737 1396.96 125.912 1396.86 127.428H1406.46Z" fill="white"/>
<path d="M692.975 421.191H681.845L679.71 427.001H677.12L686.045 402.851H688.81L697.7 427.001H695.11L692.975 421.191ZM692.24 419.161L687.41 405.931L682.58 419.161H692.24ZM702.857 404.286C702.367 404.286 701.947 404.111 701.597 403.761C701.247 403.411 701.072 402.98 701.072 402.466C701.072 401.953 701.247 401.533 701.597 401.206C701.947 400.856 702.367 400.681 702.857 400.681C703.347 400.681 703.767 400.856 704.117 401.206C704.467 401.533 704.642 401.953 704.642 402.466C704.642 402.98 704.467 403.411 704.117 403.761C703.767 404.111 703.347 404.286 702.857 404.286ZM704.082 407.891V427.001H701.632V407.891H704.082ZM712.08 411.286C712.617 410.096 713.433 409.175 714.53 408.521C715.65 407.868 717.015 407.541 718.625 407.541V410.096H717.96C716.187 410.096 714.763 410.575 713.69 411.531C712.617 412.488 712.08 414.086 712.08 416.326V427.001H709.63V407.891H712.08V411.286ZM734.365 402.536V427.001H731.915V402.536H734.365ZM748.873 407.541C751.16 407.541 753.027 408.253 754.473 409.676C755.92 411.076 756.643 413.118 756.643 415.801V427.001H754.228V416.081C754.228 414.005 753.703 412.418 752.653 411.321C751.627 410.225 750.215 409.676 748.418 409.676C746.575 409.676 745.105 410.26 744.008 411.426C742.912 412.593 742.363 414.308 742.363 416.571V427.001H739.913V407.891H742.363V411.146C742.97 409.98 743.845 409.093 744.988 408.486C746.132 407.856 747.427 407.541 748.873 407.541ZM760.942 417.411C760.942 415.451 761.338 413.736 762.132 412.266C762.925 410.773 764.01 409.63 765.387 408.836C766.787 408.02 768.362 407.611 770.112 407.611C771.792 407.611 773.308 408.02 774.662 408.836C776.015 409.653 777.007 410.715 777.637 412.021V401.101H780.087V427.001H777.637V422.731C777.053 424.061 776.097 425.158 774.767 426.021C773.437 426.861 771.873 427.281 770.077 427.281C768.327 427.281 766.752 426.873 765.352 426.056C763.975 425.24 762.89 424.085 762.097 422.591C761.327 421.098 760.942 419.371 760.942 417.411ZM777.637 417.446C777.637 415.906 777.322 414.553 776.692 413.386C776.062 412.22 775.198 411.321 774.102 410.691C773.028 410.061 771.838 409.746 770.532 409.746C769.178 409.746 767.965 410.05 766.892 410.656C765.818 411.263 764.967 412.15 764.337 413.316C763.73 414.46 763.427 415.825 763.427 417.411C763.427 418.975 763.73 420.351 764.337 421.541C764.967 422.708 765.818 423.606 766.892 424.236C767.965 424.843 769.178 425.146 770.532 425.146C771.838 425.146 773.028 424.831 774.102 424.201C775.198 423.571 776.062 422.673 776.692 421.506C777.322 420.34 777.637 418.986 777.637 417.446ZM786.905 404.286C786.415 404.286 785.995 404.111 785.645 403.761C785.295 403.411 785.12 402.98 785.12 402.466C785.12 401.953 785.295 401.533 785.645 401.206C785.995 400.856 786.415 400.681 786.905 400.681C787.395 400.681 787.815 400.856 788.165 401.206C788.515 401.533 788.69 401.953 788.69 402.466C788.69 402.98 788.515 403.411 788.165 403.761C787.815 404.111 787.395 404.286 786.905 404.286ZM788.13 407.891V427.001H785.68V407.891H788.13ZM792.558 417.411C792.558 415.451 792.943 413.736 793.713 412.266C794.506 410.773 795.591 409.63 796.968 408.836C798.368 408.02 799.943 407.611 801.693 407.611C803.513 407.611 805.076 408.031 806.383 408.871C807.713 409.711 808.67 410.785 809.253 412.091V407.891H811.703V427.001H809.253V422.766C808.646 424.073 807.678 425.158 806.348 426.021C805.041 426.861 803.478 427.281 801.658 427.281C799.931 427.281 798.368 426.873 796.968 426.056C795.591 425.24 794.506 424.085 793.713 422.591C792.943 421.098 792.558 419.371 792.558 417.411ZM809.253 417.446C809.253 415.906 808.938 414.553 808.308 413.386C807.678 412.22 806.815 411.321 805.718 410.691C804.645 410.061 803.455 409.746 802.148 409.746C800.795 409.746 799.581 410.05 798.508 410.656C797.435 411.263 796.583 412.15 795.953 413.316C795.346 414.46 795.043 415.825 795.043 417.411C795.043 418.975 795.346 420.351 795.953 421.541C796.583 422.708 797.435 423.606 798.508 424.236C799.581 424.843 800.795 425.146 802.148 425.146C803.455 425.146 804.645 424.831 805.718 424.201C806.815 423.571 807.678 422.673 808.308 421.506C808.938 420.34 809.253 418.986 809.253 417.446ZM825.781 414.751C825.781 412.348 826.306 410.201 827.356 408.311C828.406 406.398 829.841 404.916 831.661 403.866C833.481 402.793 835.511 402.256 837.751 402.256C840.481 402.256 842.814 402.91 844.751 404.216C846.711 405.5 848.134 407.32 849.021 409.676H846.151C845.451 408.02 844.377 406.725 842.931 405.791C841.507 404.858 839.781 404.391 837.751 404.391C835.954 404.391 834.332 404.811 832.886 405.651C831.462 406.491 830.342 407.705 829.526 409.291C828.709 410.855 828.301 412.675 828.301 414.751C828.301 416.828 828.709 418.648 829.526 420.211C830.342 421.775 831.462 422.976 832.886 423.816C834.332 424.656 835.954 425.076 837.751 425.076C839.781 425.076 841.507 424.621 842.931 423.711C844.377 422.778 845.451 421.495 846.151 419.861H849.021C848.134 422.195 846.711 424.003 844.751 425.286C842.791 426.57 840.457 427.211 837.751 427.211C835.511 427.211 833.481 426.686 831.661 425.636C829.841 424.563 828.406 423.081 827.356 421.191C826.306 419.301 825.781 417.155 825.781 414.751ZM863.003 407.541C864.449 407.541 865.744 407.845 866.888 408.451C868.054 409.058 868.964 409.991 869.618 411.251C870.294 412.488 870.633 414.005 870.633 415.801V427.001H868.218V416.081C868.218 414.005 867.693 412.418 866.643 411.321C865.616 410.225 864.204 409.676 862.408 409.676C860.564 409.676 859.094 410.26 857.998 411.426C856.901 412.593 856.353 414.308 856.353 416.571V427.001H853.903V401.101H856.353V411.146C856.959 410.003 857.846 409.116 859.013 408.486C860.203 407.856 861.533 407.541 863.003 407.541ZM874.931 417.411C874.931 415.451 875.316 413.736 876.086 412.266C876.879 410.773 877.964 409.63 879.341 408.836C880.741 408.02 882.316 407.611 884.066 407.611C885.886 407.611 887.449 408.031 888.756 408.871C890.086 409.711 891.043 410.785 891.626 412.091V407.891H894.076V427.001H891.626V422.766C891.019 424.073 890.051 425.158 888.721 426.021C887.414 426.861 885.851 427.281 884.031 427.281C882.304 427.281 880.741 426.873 879.341 426.056C877.964 425.24 876.879 424.085 876.086 422.591C875.316 421.098 874.931 419.371 874.931 417.411ZM891.626 417.446C891.626 415.906 891.311 414.553 890.681 413.386C890.051 412.22 889.188 411.321 888.091 410.691C887.018 410.061 885.828 409.746 884.521 409.746C883.168 409.746 881.954 410.05 880.881 410.656C879.808 411.263 878.956 412.15 878.326 413.316C877.719 414.46 877.416 415.825 877.416 417.411C877.416 418.975 877.719 420.351 878.326 421.541C878.956 422.708 879.808 423.606 880.881 424.236C881.954 424.843 883.168 425.146 884.521 425.146C885.828 425.146 887.018 424.831 888.091 424.201C889.188 423.571 890.051 422.673 890.681 421.506C891.311 420.34 891.626 418.986 891.626 417.446ZM902.119 411.286C902.656 410.096 903.472 409.175 904.569 408.521C905.689 407.868 907.054 407.541 908.664 407.541V410.096H907.999C906.226 410.096 904.802 410.575 903.729 411.531C902.656 412.488 902.119 414.086 902.119 416.326V427.001H899.669V407.891H902.119V411.286ZM915.535 409.956V421.821C915.535 422.988 915.756 423.793 916.2 424.236C916.643 424.68 917.425 424.901 918.545 424.901H920.785V427.001H918.16C916.433 427.001 915.15 426.605 914.31 425.811C913.47 424.995 913.05 423.665 913.05 421.821V409.956H910.39V407.891H913.05V403.096H915.535V407.891H920.785V409.956H915.535ZM942.115 416.466C942.115 417.306 942.092 417.948 942.045 418.391H926.19C926.26 419.838 926.61 421.075 927.24 422.101C927.87 423.128 928.699 423.91 929.725 424.446C930.752 424.96 931.872 425.216 933.085 425.216C934.672 425.216 936.002 424.831 937.075 424.061C938.172 423.291 938.895 422.253 939.245 420.946H941.835C941.369 422.813 940.365 424.341 938.825 425.531C937.309 426.698 935.395 427.281 933.085 427.281C931.289 427.281 929.679 426.885 928.255 426.091C926.832 425.275 925.712 424.131 924.895 422.661C924.102 421.168 923.705 419.43 923.705 417.446C923.705 415.463 924.102 413.725 924.895 412.231C925.689 410.738 926.797 409.595 928.22 408.801C929.644 408.008 931.265 407.611 933.085 407.611C934.905 407.611 936.492 408.008 937.845 408.801C939.222 409.595 940.272 410.668 940.995 412.021C941.742 413.351 942.115 414.833 942.115 416.466ZM939.63 416.396C939.654 414.973 939.362 413.76 938.755 412.756C938.172 411.753 937.367 410.995 936.34 410.481C935.314 409.968 934.194 409.711 932.98 409.711C931.16 409.711 929.609 410.295 928.325 411.461C927.042 412.628 926.33 414.273 926.19 416.396H939.63ZM949.048 411.286C949.585 410.096 950.401 409.175 951.498 408.521C952.618 407.868 953.983 407.541 955.593 407.541V410.096H954.928C953.155 410.096 951.731 410.575 950.658 411.531C949.585 412.488 949.048 414.086 949.048 416.326V427.001H946.598V407.891H949.048V411.286ZM965.859 427.281C963.665 427.281 961.869 426.78 960.469 425.776C959.092 424.75 958.322 423.361 958.159 421.611H960.679C960.795 422.685 961.297 423.56 962.184 424.236C963.094 424.89 964.307 425.216 965.824 425.216C967.154 425.216 968.192 424.901 968.939 424.271C969.709 423.641 970.094 422.86 970.094 421.926C970.094 421.273 969.884 420.736 969.464 420.316C969.044 419.896 968.507 419.57 967.854 419.336C967.224 419.08 966.36 418.811 965.264 418.531C963.84 418.158 962.685 417.785 961.799 417.411C960.912 417.038 960.154 416.49 959.524 415.766C958.917 415.02 958.614 414.028 958.614 412.791C958.614 411.858 958.894 410.995 959.454 410.201C960.014 409.408 960.807 408.778 961.834 408.311C962.86 407.845 964.027 407.611 965.334 407.611C967.387 407.611 969.044 408.136 970.304 409.186C971.564 410.213 972.24 411.636 972.334 413.456H969.884C969.814 412.336 969.37 411.438 968.554 410.761C967.76 410.061 966.664 409.711 965.264 409.711C964.027 409.711 963.024 410.003 962.254 410.586C961.484 411.17 961.099 411.893 961.099 412.756C961.099 413.503 961.32 414.121 961.764 414.611C962.23 415.078 962.802 415.451 963.479 415.731C964.155 415.988 965.065 416.28 966.209 416.606C967.585 416.98 968.682 417.341 969.499 417.691C970.315 418.041 971.015 418.555 971.599 419.231C972.182 419.908 972.485 420.806 972.509 421.926C972.509 422.953 972.229 423.875 971.669 424.691C971.109 425.485 970.327 426.115 969.324 426.581C968.32 427.048 967.165 427.281 965.859 427.281ZM989.175 425.006H997.96V427.001H986.725V402.536H989.175V425.006ZM1004.64 409.956V421.821C1004.64 422.988 1004.86 423.793 1005.31 424.236C1005.75 424.68 1006.53 424.901 1007.65 424.901H1009.89V427.001H1007.27C1005.54 427.001 1004.26 426.605 1003.42 425.811C1002.58 424.995 1002.16 423.665 1002.16 421.821V409.956H999.496V407.891H1002.16V403.096H1004.64V407.891H1009.89V409.956H1004.64ZM1012.81 417.411C1012.81 415.451 1013.21 413.736 1014 412.266C1014.8 410.773 1015.88 409.63 1017.26 408.836C1018.66 408.02 1020.23 407.611 1021.98 407.611C1023.66 407.611 1025.18 408.02 1026.53 408.836C1027.89 409.653 1028.88 410.715 1029.51 412.021V401.101H1031.96V427.001H1029.51V422.731C1028.92 424.061 1027.97 425.158 1026.64 426.021C1025.31 426.861 1023.74 427.281 1021.95 427.281C1020.2 427.281 1018.62 426.873 1017.22 426.056C1015.85 425.24 1014.76 424.085 1013.97 422.591C1013.2 421.098 1012.81 419.371 1012.81 417.411ZM1029.51 417.446C1029.51 415.906 1029.19 414.553 1028.56 413.386C1027.93 412.22 1027.07 411.321 1025.97 410.691C1024.9 410.061 1023.71 409.746 1022.4 409.746C1021.05 409.746 1019.84 410.05 1018.76 410.656C1017.69 411.263 1016.84 412.15 1016.21 413.316C1015.6 414.46 1015.3 415.825 1015.3 417.411C1015.3 418.975 1015.6 420.351 1016.21 421.541C1016.84 422.708 1017.69 423.606 1018.76 424.236C1019.84 424.843 1021.05 425.146 1022.4 425.146C1023.71 425.146 1024.9 424.831 1025.97 424.201C1027.07 423.571 1027.93 422.673 1028.56 421.506C1029.19 420.34 1029.51 418.986 1029.51 417.446Z" fill="white" fill-opacity="0.7"/>
<path opacity="0.3" d="M795.76 170.455C792.727 170.455 789.997 169.935 787.57 168.895C785.143 167.812 783.237 166.295 781.85 164.345C780.463 162.395 779.77 160.12 779.77 157.52H787.7C787.873 159.47 788.632 161.073 789.975 162.33C791.362 163.587 793.29 164.215 795.76 164.215C798.317 164.215 800.31 163.608 801.74 162.395C803.17 161.138 803.885 159.535 803.885 157.585C803.885 156.068 803.43 154.833 802.52 153.88C801.653 152.927 800.548 152.19 799.205 151.67C797.905 151.15 796.085 150.587 793.745 149.98C790.798 149.2 788.393 148.42 786.53 147.64C784.71 146.817 783.15 145.56 781.85 143.87C780.55 142.18 779.9 139.927 779.9 137.11C779.9 134.51 780.55 132.235 781.85 130.285C783.15 128.335 784.97 126.84 787.31 125.8C789.65 124.76 792.358 124.24 795.435 124.24C799.812 124.24 803.387 125.345 806.16 127.555C808.977 129.722 810.537 132.712 810.84 136.525H802.65C802.52 134.878 801.74 133.47 800.31 132.3C798.88 131.13 796.995 130.545 794.655 130.545C792.532 130.545 790.798 131.087 789.455 132.17C788.112 133.253 787.44 134.813 787.44 136.85C787.44 138.237 787.852 139.385 788.675 140.295C789.542 141.162 790.625 141.855 791.925 142.375C793.225 142.895 795.002 143.458 797.255 144.065C800.245 144.888 802.672 145.712 804.535 146.535C806.442 147.358 808.045 148.637 809.345 150.37C810.688 152.06 811.36 154.335 811.36 157.195C811.36 159.492 810.732 161.658 809.475 163.695C808.262 165.732 806.463 167.378 804.08 168.635C801.74 169.848 798.967 170.455 795.76 170.455ZM827.514 139.45C828.77 137.803 830.482 136.417 832.649 135.29C834.815 134.163 837.264 133.6 839.994 133.6C843.114 133.6 845.952 134.38 848.509 135.94C851.109 137.457 853.145 139.602 854.619 142.375C856.092 145.148 856.829 148.333 856.829 151.93C856.829 155.527 856.092 158.755 854.619 161.615C853.145 164.432 851.109 166.642 848.509 168.245C845.952 169.805 843.114 170.585 839.994 170.585C837.264 170.585 834.837 170.043 832.714 168.96C830.59 167.833 828.857 166.447 827.514 164.8V187.03H820.104V134.185H827.514V139.45ZM849.289 151.93C849.289 149.46 848.769 147.337 847.729 145.56C846.732 143.74 845.389 142.375 843.699 141.465C842.052 140.512 840.275 140.035 838.369 140.035C836.505 140.035 834.729 140.512 833.039 141.465C831.392 142.418 830.049 143.805 829.009 145.625C828.012 147.445 827.514 149.59 827.514 152.06C827.514 154.53 828.012 156.697 829.009 158.56C830.049 160.38 831.392 161.767 833.039 162.72C834.729 163.673 836.505 164.15 838.369 164.15C840.275 164.15 842.052 163.673 843.699 162.72C845.389 161.723 846.732 160.293 847.729 158.43C848.769 156.567 849.289 154.4 849.289 151.93ZM867.926 129.44C866.583 129.44 865.456 128.985 864.546 128.075C863.636 127.165 863.181 126.038 863.181 124.695C863.181 123.352 863.636 122.225 864.546 121.315C865.456 120.405 866.583 119.95 867.926 119.95C869.226 119.95 870.331 120.405 871.241 121.315C872.151 122.225 872.606 123.352 872.606 124.695C872.606 126.038 872.151 127.165 871.241 128.075C870.331 128.985 869.226 129.44 867.926 129.44ZM871.566 134.185V170H864.156V134.185H871.566ZM878.825 152.06C878.825 148.377 879.562 145.148 881.035 142.375C882.552 139.558 884.632 137.392 887.275 135.875C889.918 134.358 892.952 133.6 896.375 133.6C900.708 133.6 904.283 134.64 907.1 136.72C909.96 138.757 911.888 141.682 912.885 145.495H904.89C904.24 143.718 903.2 142.332 901.77 141.335C900.34 140.338 898.542 139.84 896.375 139.84C893.342 139.84 890.915 140.923 889.095 143.09C887.318 145.213 886.43 148.203 886.43 152.06C886.43 155.917 887.318 158.928 889.095 161.095C890.915 163.262 893.342 164.345 896.375 164.345C900.665 164.345 903.503 162.46 904.89 158.69H912.885C911.845 162.33 909.895 165.233 907.035 167.4C904.175 169.523 900.622 170.585 896.375 170.585C892.952 170.585 889.918 169.827 887.275 168.31C884.632 166.75 882.552 164.583 881.035 161.81C879.562 158.993 878.825 155.743 878.825 152.06ZM953.095 151.215C953.095 152.558 953.008 153.772 952.835 154.855H925.47C925.686 157.715 926.748 160.012 928.655 161.745C930.561 163.478 932.901 164.345 935.675 164.345C939.661 164.345 942.478 162.677 944.125 159.34H952.12C951.036 162.633 949.065 165.342 946.205 167.465C943.388 169.545 939.878 170.585 935.675 170.585C932.251 170.585 929.175 169.827 926.445 168.31C923.758 166.75 921.635 164.583 920.075 161.81C918.558 158.993 917.8 155.743 917.8 152.06C917.8 148.377 918.536 145.148 920.01 142.375C921.526 139.558 923.628 137.392 926.315 135.875C929.045 134.358 932.165 133.6 935.675 133.6C939.055 133.6 942.066 134.337 944.71 135.81C947.353 137.283 949.411 139.363 950.885 142.05C952.358 144.693 953.095 147.748 953.095 151.215ZM945.36 148.875C945.316 146.145 944.341 143.957 942.435 142.31C940.528 140.663 938.166 139.84 935.35 139.84C932.793 139.84 930.605 140.663 928.785 142.31C926.965 143.913 925.881 146.102 925.535 148.875H945.36ZM1001.91 124.825V157.39C1001.91 161.42 1000.67 164.605 998.201 166.945C995.775 169.285 992.568 170.455 988.581 170.455C984.595 170.455 981.366 169.285 978.896 166.945C976.47 164.605 975.256 161.42 975.256 157.39H982.731C982.775 159.383 983.273 160.965 984.226 162.135C985.223 163.305 986.675 163.89 988.581 163.89C990.488 163.89 991.94 163.305 992.936 162.135C993.933 160.922 994.431 159.34 994.431 157.39V124.825H1001.91ZM1046.79 151.215C1046.79 152.558 1046.7 153.772 1046.53 154.855H1019.16C1019.38 157.715 1020.44 160.012 1022.35 161.745C1024.25 163.478 1026.59 164.345 1029.37 164.345C1033.35 164.345 1036.17 162.677 1037.82 159.34H1045.81C1044.73 162.633 1042.76 165.342 1039.9 167.465C1037.08 169.545 1033.57 170.585 1029.37 170.585C1025.94 170.585 1022.87 169.827 1020.14 168.31C1017.45 166.75 1015.33 164.583 1013.77 161.81C1012.25 158.993 1011.49 155.743 1011.49 152.06C1011.49 148.377 1012.23 145.148 1013.7 142.375C1015.22 139.558 1017.32 137.392 1020.01 135.875C1022.74 134.358 1025.86 133.6 1029.37 133.6C1032.75 133.6 1035.76 134.337 1038.4 135.81C1041.04 137.283 1043.1 139.363 1044.58 142.05C1046.05 144.693 1046.79 147.748 1046.79 151.215ZM1039.05 148.875C1039.01 146.145 1038.03 143.957 1036.13 142.31C1034.22 140.663 1031.86 139.84 1029.04 139.84C1026.48 139.84 1024.3 140.663 1022.48 142.31C1020.66 143.913 1019.57 146.102 1019.23 148.875H1039.05ZM1062.72 140.23V160.055C1062.72 161.398 1063.03 162.373 1063.63 162.98C1064.28 163.543 1065.37 163.825 1066.88 163.825H1071.43V170H1065.58C1062.25 170 1059.69 169.22 1057.91 167.66C1056.14 166.1 1055.25 163.565 1055.25 160.055V140.23H1051.02V134.185H1055.25V125.28H1062.72V134.185H1071.43V140.23H1062.72Z" fill="white"/>
<path d="M690.589 155.237V389.003H633.646V155.237H690.589ZM845.075 201.191C866.831 201.191 884.147 208.295 897.023 222.503C910.121 236.489 916.67 255.803 916.67 280.445V389.003H860.06V288.104C860.06 275.672 856.841 266.015 850.403 259.133C843.965 252.251 835.307 248.81 824.429 248.81C813.551 248.81 804.893 252.251 798.455 259.133C792.017 266.015 788.798 275.672 788.798 288.104V389.003H731.855V203.189H788.798V227.831C794.57 219.617 802.34 213.179 812.108 208.517C821.876 203.633 832.865 201.191 845.075 201.191ZM944.918 295.763C944.918 276.671 948.47 259.91 955.574 245.48C962.9 231.05 972.779 219.95 985.211 212.18C997.643 204.41 1011.52 200.525 1026.84 200.525C1039.05 200.525 1050.15 203.078 1060.14 208.184C1070.35 213.29 1078.34 220.172 1084.11 228.83V142.583H1141.05V389.003H1084.11V362.363C1078.78 371.243 1071.12 378.347 1061.13 383.675C1051.37 389.003 1039.93 391.667 1026.84 391.667C1011.52 391.667 997.643 387.782 985.211 380.012C972.779 372.02 962.9 360.809 955.574 346.379C948.47 331.727 944.918 314.855 944.918 295.763ZM1084.11 296.096C1084.11 281.888 1080.12 270.677 1072.12 262.463C1064.35 254.249 1054.81 250.142 1043.49 250.142C1032.16 250.142 1022.51 254.249 1014.51 262.463C1006.74 270.455 1002.86 281.555 1002.86 295.763C1002.86 309.971 1006.74 321.293 1014.51 329.729C1022.51 337.943 1032.16 342.05 1043.49 342.05C1054.81 342.05 1064.35 337.943 1072.12 329.729C1080.12 321.515 1084.11 310.304 1084.11 296.096ZM1210.89 183.875C1200.9 183.875 1192.68 180.989 1186.25 175.217C1180.03 169.223 1176.92 161.897 1176.92 153.239C1176.92 144.359 1180.03 137.033 1186.25 131.261C1192.68 125.267 1200.9 122.27 1210.89 122.27C1220.66 122.27 1228.65 125.267 1234.86 131.261C1241.3 137.033 1244.52 144.359 1244.52 153.239C1244.52 161.897 1241.3 169.223 1234.86 175.217C1228.65 180.989 1220.66 183.875 1210.89 183.875ZM1239.19 203.189V389.003H1182.25V203.189H1239.19ZM1435.64 229.163C1431.42 221.393 1425.31 215.51 1417.32 211.514C1409.55 207.296 1400.34 205.187 1389.68 205.187C1371.26 205.187 1356.49 211.292 1345.39 223.502C1334.29 235.49 1328.74 251.585 1328.74 271.787C1328.74 293.321 1334.52 310.193 1346.06 322.403C1357.83 334.391 1373.92 340.385 1394.35 340.385C1408.33 340.385 1420.1 336.833 1429.64 329.729C1439.41 322.625 1446.52 312.413 1450.96 299.093H1378.69V257.135H1502.57V310.082C1498.35 324.29 1491.14 337.499 1480.93 349.709C1470.94 361.919 1458.17 371.798 1442.63 379.346C1427.09 386.894 1409.55 390.668 1390.02 390.668C1366.93 390.668 1346.28 385.673 1328.08 375.683C1310.1 365.471 1296 351.374 1285.79 333.392C1275.8 315.41 1270.8 294.875 1270.8 271.787C1270.8 248.699 1275.8 228.164 1285.79 210.182C1296 191.978 1310.1 177.881 1328.08 167.891C1346.06 157.679 1366.6 152.573 1389.68 152.573C1417.66 152.573 1441.19 159.344 1460.28 172.886C1479.59 186.428 1492.36 205.187 1498.57 229.163H1435.64ZM1618.69 391.667C1600.49 391.667 1584.06 387.782 1569.41 380.012C1554.98 372.242 1543.55 361.142 1535.11 346.712C1526.9 332.282 1522.79 315.41 1522.79 296.096C1522.79 277.004 1527.01 260.243 1535.44 245.813C1543.88 231.161 1555.42 219.95 1570.08 212.18C1584.73 204.41 1601.16 200.525 1619.36 200.525C1637.56 200.525 1653.99 204.41 1668.64 212.18C1683.3 219.95 1694.84 231.161 1703.28 245.813C1711.71 260.243 1715.93 277.004 1715.93 296.096C1715.93 315.188 1711.6 332.06 1702.94 346.712C1694.51 361.142 1682.85 372.242 1667.98 380.012C1653.33 387.782 1636.9 391.667 1618.69 391.667ZM1618.69 342.383C1629.57 342.383 1638.78 338.387 1646.33 330.395C1654.1 322.403 1657.99 310.97 1657.99 296.096C1657.99 281.222 1654.21 269.789 1646.67 261.797C1639.34 253.805 1630.24 249.809 1619.36 249.809C1608.26 249.809 1599.05 253.805 1591.72 261.797C1584.39 269.567 1580.73 281 1580.73 296.096C1580.73 310.97 1584.28 322.403 1591.39 330.395C1598.71 338.387 1607.82 342.383 1618.69 342.383Z" fill="url(#paint1_linear_162_148)" fill-opacity="0.6"/>
<g opacity="0.5">
<path opacity="0.5" d="M1834.75 298.929C1808.39 298.929 1725.31 366.274 1788.45 424.356C1806.12 435.301 1860 424.356 1860 361.221C1860 354.487 1850.74 299.901 1764.03 280.409C1720.14 270.54 1679.01 280.409 1626.82 255.154C1574.63 229.9 1552.74 170.132 1557.79 114.573C1563.43 52.5518 1635.83 -9.89646 1698.37 2.61243C1753.09 13.5559 1788.45 103.629 1705.11 139.827C1609.13 181.516 1482.03 56.488 1458.46 53.1208" stroke="white" stroke-dasharray="5 5"/>
<path opacity="0.5" d="M1465.71 74.6693L1451.87 72.6903L1425.15 93.1621L1467.12 127.191L1452.08 136.251L1400.89 109.499C1400.18 110.145 1394.23 116.022 1373.65 131.018C1360.79 140.39 1350.24 125.802 1360.18 116.012L1387.32 95.2262L1377.48 36.6429L1392.06 25.6471L1412.89 74.9649L1441.63 55.9044L1439.67 41.0488L1452.27 30.8919L1455.93 56.8428L1478.31 67.1281L1465.71 74.6693Z" stroke="white"/>
</g>
<defs>
<linearGradient id="paint0_linear_162_148" x1="876" y1="-21.7797" x2="874.384" y2="438.927" gradientUnits="userSpaceOnUse">
<stop stop-color="#1A132C"/>
<stop offset="1" stop-color="#4A1F40"/>
</linearGradient>
<linearGradient id="paint1_linear_162_148" x1="627" y1="153.003" x2="1798" y2="469.003" gradientUnits="userSpaceOnUse">
<stop stop-color="white"/>
<stop offset="1" stop-color="#F2AEEC"/>
</linearGradient>
</defs>
</svg>
